<?xml version="1.0" encoding="utf-8"?>
<!-- Generator: Adobe Illustrator 24.1.0, SVG Export Plug-In . SVG Version: 6.00 Build 0)  -->
<svg version="1.1" id="Слой_1" xmlns="http://www.w3.org/2000/svg" xmlns:xlink="http://www.w3.org/1999/xlink" x="0px" y="0px"
	 viewBox="0 0 38 38" style="enable-background:new 0 0 38 38;" xml:space="preserve">
<style type="text/css">
	.st0{fill:#FFFFFF;}
	.st1{fill:#45ABDE;}
	.st2{fill:#25434E;}
</style>
<path class="st0" d="M30.4,9.7L30.4,9.7C28.7,6.1,25,3.9,21,4.1v0c-0.8,0.2-1.7-0.4-1.8-1.2c0,0,0,0,0,0C18.9,2,19.5,1.2,20.3,1
	c0,0,0,0,0,0c0.2,0,0.4,0,0.6,0c-1.6-0.8-3.5-1-5.2-0.6c-4.5,0.9-7.3,5.3-6.4,9.8c0.2,0.7,0.4,1.5,0.8,2.1c-1-0.7-1.9-1.6-2.5-2.6
	c-2.2,2.5-3.5,5.8-3.5,9.2V25c0,7,5.7,12.7,12.7,12.7h4.5c7,0,12.7-5.7,12.7-12.7v-6.1C33.9,15.5,32.7,12.3,30.4,9.7z"/>
<path class="st1" d="M25.4,15.4c-3.6,0-7.1,2.1-7.1,2.1l2.2-2.6c0,0-2.1,2.2-6.7,2.2s-6.1-1.1-6.1-1.1v7.8c0,3.8,2.9,7,6.7,7.3
	c0,0,0,0,0-0.1l0.9-1.5c0.3-0.4,0.6-0.4,0.9,0l0.9,1.5c0,0,0,0.1,0,0.1h3.8c0,0,0-0.1,0-0.1l0.9-1.5c0.3-0.4,0.6-0.4,0.9,0l0.9,1.5
	c0,0,0,0,0,0.1c3.8-0.3,6.7-3.5,6.7-7.3v-7.8C30.3,15.9,29,15.4,25.4,15.4z"/>
<circle class="st2" cx="14.5" cy="22" r="1.5"/>
<circle class="st2" cx="23.5" cy="22" r="1.5"/>
</svg>
